<svg width="352" height="332" viewBox="0 0 352 332" fill="none" xmlns="http://www.w3.org/2000/svg">
<path d="M1.98139 331C111.111 327.356 221.259 326.979 328.481 329.187M1 323.547C118.801 307.959 237.877 315.47 332.832 326.102L1 323.547Z" stroke="white" stroke-width="2"/>
<path d="M10.2772 17.3544C119.407 13.7103 229.555 13.333 336.776 15.5411M9.29578 9.90166C127.097 -5.68671 246.173 1.82406 341.128 12.4566L9.29578 9.90166Z" stroke="white" stroke-width="2"/>
<path d="M351 313.762C346.952 215.525 346.533 116.372 348.986 19.8528M342.721 314.646C325.404 208.603 333.748 101.413 345.559 15.9355L342.721 314.646Z" stroke="white" stroke-width="2"/>
<path d="M19.1678 328.698C15.1197 230.461 14.7005 131.308 17.1535 34.7884M10.8887 329.581C-6.42816 223.539 1.91543 116.348 13.727 30.8711L10.8887 329.581Z" stroke="white" stroke-width="2"/>
</svg>
