<svg width="206" height="117" viewBox="0 0 206 117" fill="none" xmlns="http://www.w3.org/2000/svg">
<path d="M1.57201 116C65.1793 114.73 129.379 114.599 191.874 115.368M1 113.403C69.6611 107.971 139.065 110.588 194.411 114.293L1 113.403Z" stroke="white" stroke-width="2"/>
<path d="M6.40727 6.69925C70.0145 5.42935 134.215 5.29787 196.71 6.06736M5.83527 4.10209C74.4964 -1.33022 143.901 1.28717 199.246 4.99246L5.83527 4.10209Z" stroke="white" stroke-width="2"/>
<path d="M205 109.993C202.64 75.7588 202.396 41.2054 203.826 7.56995M200.174 110.301C190.081 73.3466 194.944 35.9923 201.829 6.20482L200.174 110.301Z" stroke="white" stroke-width="2"/>
<path d="M11.5892 115.198C9.22975 80.9635 8.98546 46.4102 10.4152 12.7747M6.7637 115.506C-3.32956 78.5513 1.53357 41.1971 8.41801 11.4096L6.7637 115.506Z" stroke="white" stroke-width="2"/>
</svg>
