<svg width="45" height="47" viewBox="0 0 45 47" fill="none" xmlns="http://www.w3.org/2000/svg">
<path d="M1.1183 45.19C14.2731 44.702 27.5506 44.6515 40.4754 44.9472M1 44.192C15.2001 42.1046 29.5538 43.1103 41 44.5341L1 44.192Z" stroke="white" stroke-width="2"/>
<path d="M2.1183 3.19C15.2731 2.70203 28.5506 2.6515 41.4754 2.94719M2 2.19201C16.2001 0.104589 30.5538 1.11035 42 2.53415L2 2.19201Z" stroke="white" stroke-width="2"/>
<path d="M43.19 42.8817C42.702 29.7269 42.6515 16.4494 42.9472 3.52457M42.192 43C40.1046 28.7999 41.1103 14.4462 42.5341 3L42.192 43Z" stroke="white" stroke-width="2"/>
<path d="M3.19 44.8817C2.70203 31.7269 2.6515 18.4494 2.94719 5.52457M2.19201 45C0.104589 30.7999 1.11035 16.4462 2.53415 5L2.19201 45Z" stroke="white" stroke-width="2"/>
</svg>
