<svg width="42" height="42" viewBox="0 0 42 42" fill="none" xmlns="http://www.w3.org/2000/svg">
<path d="M40.1669 37.9471C39.69 38.4665 39.1069 39.0306 38.2266 40.1435M2.3369 1.80812C2.10926 1.94148 1.89861 2.19656 1.74737 2.40001L2.3369 1.80812ZM2.31739 1.76402C2.16292 1.95742 2.04382 2.14737 1.72366 2.38293L2.31739 1.76402ZM4.73437 1.56787C3.94842 2.05178 2.7969 2.70427 1.68874 5.03247L4.73437 1.56787ZM4.24027 1.67137C3.24473 3.01323 2.53654 3.93361 1.77414 4.73473L4.24027 1.67137ZM6.58095 1.0524C4.76988 2.30243 4.97545 4.47552 1.28935 7.48072L6.58095 1.0524ZM6.04039 1.52783C5.45201 3.26315 3.8992 4.50676 1.79065 6.86933L6.04039 1.52783ZM8.75933 2.48271C6.98323 3.76005 3.69875 6.36937 2.16493 9.90218L8.75933 2.48271ZM8.05173 1.46659C6.71819 3.83362 4.37851 6.33985 1.60571 9.22859L8.05173 1.46659ZM10.9883 2.26983C6.185 6.36841 3.076 9.84071 2.43884 11.1844L10.9883 2.26983ZM10.3457 1.70793C7.5416 5.78478 4.1264 9.47035 2.00225 11.6124L10.3457 1.70793ZM13.1742 1.50718C9.8954 5.14366 5.82877 9.24882 2.40876 13.6508L13.1742 1.50718ZM12.7293 2.02097C10.4569 4.11887 7.61037 6.92127 1.47898 14.2654L12.7293 2.02097ZM15.0957 1.2351C11.6568 5.14323 7.65408 8.63115 1.99436 16.0925L15.0957 1.2351ZM14.3048 1.39368C10.5642 6.60068 5.82268 11.4621 1.8248 16.5375L14.3048 1.39368ZM16.1909 1.07724C12.234 6.54845 8.21342 11.0601 2.15949 19.5146L16.1909 1.07724ZM16.8822 1.85279C13.0352 6.04599 9.71334 9.72376 1.44216 18.4867L16.8822 1.85279ZM19.2184 1.58203C14.3978 6.03528 10.7508 9.6584 2.26056 21.4011L19.2184 1.58203ZM19.0134 1.84607C14.5653 6.53596 10.2682 11.7975 1.89642 21.2341L19.0134 1.84607ZM20.3786 1.53267C15.7546 6.64386 11.8797 10.9131 1 23.8843L20.3786 1.53267ZM20.8963 1.48148C15.2927 7.54952 10.4374 13.1535 1.94601 23.4424L20.8963 1.48148ZM23.0428 1.24605C16.1727 8.60665 9.68896 17.8368 1.20687 26.3178L23.0428 1.24605ZM22.6483 1.56773C14.7386 10.3287 7.72228 19.6351 2.01029 26.0056L22.6483 1.56773ZM25.0695 1.96283C19.5295 8.65 13.1118 14.9626 2.4664 28.9707L25.0695 1.96283ZM24.4092 1.6615C16.6389 10.7652 9.1481 19.9104 1.42732 28.4756L24.4092 1.6615ZM26.0792 1.78943C19.754 9.86571 11.3613 17.8427 2.42577 31.1154L26.0792 1.78943ZM26.4455 2.09374C19.9583 9.85605 13.0342 17.5056 1.78895 30.9643L26.4455 2.09374ZM29.0977 1.06285C20.2154 11.9268 10.8264 22.2488 1.18215 32.5292L29.0977 1.06285ZM29.0005 1.53071C23.0186 8.43495 17.2529 14.5115 1.83084 33.2156L29.0005 1.53071ZM31.4942 2.40614C25.0421 8.73238 17.8523 16.7372 1.07621 35.7535L31.4942 2.40614ZM30.7142 1.40841C23.6456 10.3553 16.3959 18.7271 1.8178 35.5727L30.7142 1.40841ZM33.5244 1.85265C20.9985 15.5268 8.939 28.6612 1.42325 36.9565L33.5244 1.85265ZM33.0265 1.84942C21.4891 15.0343 9.71386 28.0396 1.66665 37.7553L33.0265 1.84942ZM34.3965 1.06363C26.4354 12.6007 18.4128 22.1262 2.17986 39.2223L34.3965 1.06363ZM35.0845 1.72853C23.4961 15.1967 11.8693 28.6844 2.09823 39.9685L35.0845 1.72853ZM36.3652 1C25.5604 14.9046 14.5598 27.1912 3.05401 40.1413L36.3652 1ZM37.3561 1.52454C27.6144 12.4034 18.6147 23.0984 3.57007 40.4316L37.3561 1.52454ZM39.1184 1.72692C31.4787 10.0363 24.7327 16.8631 4.84558 40.3275L39.1184 1.72692ZM38.9873 2.07006C28.0265 14.5341 17.1089 27.3004 5.94644 40.5348L38.9873 2.07006ZM40.3146 3.44568C29.3728 15.4283 18.4204 29.347 7.33334 40.5381L40.3146 3.44568ZM40.6003 2.8402C29.3168 15.281 18.2324 27.7303 7.4323 40.522L40.6003 2.8402ZM40.9832 4.34051C30.1452 16.896 19.7381 29.7939 9.02437 40.557L40.9832 4.34051ZM40.1344 4.82892C30.2455 16.9337 20.0183 28.667 9.35016 40.6094L40.1344 4.82892ZM40.228 7.60711C32.3932 15.4727 24.9572 24.2167 12.1031 39.8909L40.228 7.60711ZM40.4988 7.50505C34.3286 14.8412 28.3602 21.8864 11.553 40.528L40.4988 7.50505ZM39.8876 9.60246C30.8174 20.6993 19.9463 33.0418 13.9929 40.4089L39.8876 9.60246ZM40.0018 9.46954C30.2057 21.53 20.0434 32.5089 13.9812 40.4682L40.0018 9.46954ZM39.6244 12.7784C33.0339 21.0871 24.0876 30.2855 15.6556 39.9226L39.6244 12.7784ZM39.9089 12.2503C34.2248 19.112 28.7692 25.9004 15.976 40.3076L39.9089 12.2503ZM39.711 14.5104C36.1431 19.4596 29.923 25.8469 18.4456 40.5021L39.711 14.5104ZM40.0728 14.2756C32.7061 22.9774 25.622 31.4627 18.0706 40.5182L40.0728 14.2756ZM40.7824 16.9619C34.3414 22.3848 29.0967 29.1542 19.0894 41L40.7824 16.9619ZM40.34 16.4669C35.7355 22.0383 30.6087 28.1029 20.0914 40.2732L40.34 16.4669ZM39.6647 19.1934C33.5098 25.9639 27.9258 32.7988 22.4268 40.6827L39.6647 19.1934ZM39.9465 19.0225C34.8818 25.3176 29.9396 31.6859 22.0082 40.1455L39.9465 19.0225ZM39.8155 21.9171C34.2316 28.2024 29.1182 34.5917 23.3828 39.9231L39.8155 21.9171ZM39.9325 21.8531C33.6689 29.2451 27.1237 36.1151 24.0907 40.0904L39.9325 21.8531ZM40.0437 24.5608C36.5432 28.2495 32.5297 33.2869 25.5352 40.8774L40.0437 24.5608ZM40.2186 24.1347C35.1949 29.6665 29.5939 36.1514 26.0586 40.0729L40.2186 24.1347ZM40.6911 26.5857C35.7339 31.5294 31.1915 37.1865 27.8769 40.2194L40.6911 26.5857ZM39.8833 26.5199C37.501 29.0599 35.3199 32.0131 27.6821 40.0969L39.8833 26.5199ZM40.1047 28.7859C37.1173 32.3325 33.8695 35.7055 29.5098 39.4932L40.1047 28.7859ZM39.9202 28.2825C37.1489 31.8008 34.7834 34.7402 30.3666 40.595L39.9202 28.2825ZM40.9637 30.7652C37.0241 34.7544 34.6548 37.4859 31.3419 40.5796L40.9637 30.7652ZM40.4585 31.1352C37.2465 34.5688 34.7744 37.7501 31.9811 40.058L40.4585 31.1352ZM40.7037 33.3171C38.2352 36.1914 36.2185 38.3937 33.5491 40.5488L40.7037 33.3171ZM40.1257 32.9082C38.1574 35.6216 36.6407 37.1765 33.7756 40.1029L40.1257 32.9082ZM39.986 35.3833C38.7108 37.1084 37.3388 37.9839 35.7105 40.0553L39.986 35.3833ZM40.4611 35.3496C38.7569 37.0084 37.6765 38.4485 35.9237 39.9437L40.4611 35.3496ZM39.9794 37.7826C39.347 38.6726 38.7837 39.6066 38.4801 40.2776L39.9794 37.7826Z" stroke="#C4C4C4" stroke-width="0.5"/>
</svg>
