<svg width="65" height="168" viewBox="0 0 65 168" fill="none" xmlns="http://www.w3.org/2000/svg">
<path d="M42.413 3.69324C46.5638 5.55913 51.2141 10.6041 53.1698 15.1155C55.1255 19.627 55.6135 26.2085 54.1472 30.762C52.6809 35.3155 48.4679 39.8922 44.3723 42.4364C40.2766 44.9806 34.4457 46.6843 29.5732 46.0271C24.7007 45.3699 18.3872 42.2732 15.1373 38.4933C11.8875 34.7135 10.1643 28.1132 10.074 23.3482C9.98367 18.5832 11.682 13.5638 14.5956 9.90322C17.5092 6.24266 22.9054 2.61382 27.5556 1.38478C32.2058 0.155732 40.0765 2.2384 42.497 2.52895C44.9176 2.8195 42.1115 2.60188 42.0789 3.12807M38.6615 1.2298C43.187 2.13209 48.0639 6.02944 50.7478 10.0412C53.4316 14.053 55.2664 20.3962 54.7645 25.3005C54.2626 30.2048 51.133 36.1236 47.7363 39.4672C44.3396 42.8107 39.083 44.992 34.3843 45.3618C29.6857 45.7316 23.5176 44.4584 19.5445 41.6859C15.5714 38.9135 11.7472 33.429 10.5458 28.7269C9.34448 24.0248 10.2076 17.889 12.3364 13.4732C14.4651 9.05735 18.7574 4.13795 23.3183 2.23187C27.8792 0.325789 36.8067 1.95594 39.7016 2.03671C42.5964 2.11749 40.8377 2.42823 40.6873 2.71652L38.6615 1.2298Z" stroke="white" stroke-width="2"/>
</svg>
